<?xml version="1.0" standalone="no"?>
<!DOCTYPE svg PUBLIC "-//W3C//DTD SVG 20010904//EN"
 "http://www.w3.org/TR/2001/REC-SVG-20010904/DTD/svg10.dtd">
<svg version="1.0" xmlns="http://www.w3.org/2000/svg"
 width="512.000000pt" height="512.000000pt" viewBox="0 0 512.000000 512.000000"
 preserveAspectRatio="xMidYMid meet">
<metadata>
Created by potrace 1.14, written by Peter Selinger 2001-2017
</metadata>
<g transform="translate(0.000000,512.000000) scale(0.100000,-0.100000)"
fill="#000000" stroke="none">
<path d="M2310 4889 c-108 -12 -283 -44 -382 -71 -68 -18 -78 -24 -78 -44 0
-22 0 -22 191 -26 187 -3 191 -4 210 -27 35 -44 21 -102 -31 -119 l-30 -11 2
-303 3 -303 208 -1 c221 -2 230 -4 248 -53 13 -34 -6 -77 -41 -93 l-28 -12 -7
-390 c-3 -215 -5 -436 -3 -491 l3 -100 135 -3 c151 -3 170 -10 170 -69 0 -35
-29 -73 -55 -73 -13 0 -15 -65 -15 -525 l0 -525 -317 0 c-298 0 -320 -1 -350
-20 -62 -38 -84 -126 -47 -189 12 -20 38 -41 67 -54 l47 -22 0 -671 0 -671 48
-7 c108 -14 401 -18 517 -7 488 48 958 238 1330 538 115 93 282 262 374 378
342 431 531 974 531 1525 0 641 -245 1243 -698 1711 l-93 97 89 4 c99 5 130
18 163 71 25 39 21 111 -7 150 -39 53 -93 65 -187 42 -24 -7 -34 -1 -73 38
-44 45 -72 56 -169 70 -12 1 -27 18 -39 42 -90 194 -325 246 -479 105 l-54
-49 -94 33 c-117 42 -310 90 -449 111 -125 19 -487 28 -610 14z m1484 -3270
c80 -63 71 -180 -17 -222 -31 -15 -82 -17 -434 -17 -377 0 -400 1 -430 20 -18
10 -40 31 -49 45 -23 35 -22 103 1 138 37 56 34 56 486 57 407 0 417 0 443
-21z"/>
<path d="M1315 4561 c-734 -427 -1205 -1246 -1205 -2097 0 -667 249 -1272 715
-1739 170 -171 338 -299 547 -419 l48 -27 0 1091 0 1091 -26 26 c-19 19 -33
24 -55 21 -16 -3 -29 -1 -29 4 0 21 45 93 82 134 l40 43 -357 3 -357 3 -24 28
c-30 35 -30 59 0 94 l24 28 384 5 c210 3 377 9 370 13 -7 5 -21 26 -32 46 -18
36 -19 63 -20 418 -2 409 0 425 52 480 l21 23 -266 0 c-264 0 -266 0 -293 23
-34 30 -36 83 -3 109 19 17 55 18 425 18 222 0 404 2 404 5 0 3 -10 25 -22 48
-22 40 -23 53 -23 257 0 204 1 217 23 258 l22 42 -197 0 -198 0 -50 -29z"/>
<path d="M1871 4461 c-27 -27 -34 -73 -29 -197 3 -102 5 -107 31 -130 36 -31
71 -30 102 1 24 23 25 29 25 163 0 132 -1 140 -23 160 -29 28 -80 29 -106 3z"/>
<path d="M1584 3687 l-29 -25 0 -337 0 -337 28 -24 c36 -31 71 -31 102 1 l25
24 0 334 c0 304 -2 337 -17 356 -29 34 -74 37 -109 8z"/>
<path d="M1874 3687 l-29 -25 0 -337 0 -337 28 -24 c36 -31 71 -31 102 1 l25
24 0 334 c0 304 -2 337 -17 356 -29 34 -74 37 -109 8z"/>
<path d="M2163 3686 l-28 -24 0 -337 0 -337 28 -24 c34 -29 66 -31 101 -3 l26
20 0 340 0 340 -25 24 c-31 32 -66 32 -102 1z"/>
<path d="M1583 2486 l-28 -24 -3 -1121 -2 -1120 29 -15 c16 -9 52 -25 80 -36
l51 -20 0 1156 0 1155 -25 24 c-31 32 -66 32 -102 1z"/>
<path d="M1873 2486 l-28 -24 0 -1179 0 -1178 60 -17 c33 -9 68 -17 78 -17 16
-1 17 62 17 1194 l0 1196 -25 24 c-31 32 -66 32 -102 1z"/>
<path d="M2163 2486 l-28 -24 0 -335 0 -335 24 -26 c30 -32 69 -34 105 -5 l26
20 0 340 0 340 -25 24 c-31 32 -66 32 -102 1z"/>
<path d="M2453 2486 l-28 -24 0 -335 0 -335 24 -26 c30 -32 69 -34 105 -5 l26
20 0 340 0 340 -25 24 c-31 32 -66 32 -102 1z"/>
</g>
</svg>
